<svg xmlns="http://www.w3.org/2000/svg" width="94.953" height="71.495" viewBox="0 0 94.953 71.495"><defs><style>.a{fill:#ffe470;}.b{fill:#fabe2c;}.c{fill:#29376d;}.d{fill:#47568c;}</style></defs><g transform="translate(0 -63.245)"><path class="a" d="M134.55,123.6a2.783,2.783,0,0,0-2.7-2.177,2.769,2.769,0,0,0-1.615-.517H94.572l-5.53-11.583a2.782,2.782,0,0,0-5.021,2.4l5.681,11.9L73.961,153.241a2.782,2.782,0,0,0,2.457,4.087h28.349v6.234a2.782,2.782,0,0,0,2.782,2.782h5.478a2.782,2.782,0,1,0,0-5.564h-2.7v-6.234a28.028,28.028,0,0,1,5.909-17.311,28.357,28.357,0,0,1,16.2-10.313,2.782,2.782,0,0,0,2.109-3.321Zm-41.866,6.266,10.454,21.9H81.046Zm19.156,3.962a33.619,33.619,0,0,0-5.737,11.233l-8.876-18.591h22.465a34.006,34.006,0,0,0-7.853,7.358Z" transform="translate(-59.98 -36.244)"/><path class="b" d="M280.8,179.254a2.769,2.769,0,0,0-1.616-.517H256.5V184.3h12.144A34.042,34.042,0,0,0,256.5,198.9v25.277h5.478a2.782,2.782,0,1,0,0-5.564h-2.7v-6.234a28.028,28.028,0,0,1,5.909-17.311,28.357,28.357,0,0,1,16.2-10.313,2.782,2.782,0,0,0-.591-5.5Z" transform="translate(-208.929 -94.073)"/><path class="c" d="M351.166,304.358A16.438,16.438,0,1,1,367.6,287.92,16.457,16.457,0,0,1,351.166,304.358Zm0-27.313A10.874,10.874,0,1,0,362.04,287.92a10.887,10.887,0,0,0-10.874-10.875Z" transform="translate(-272.651 -169.618)"/><path class="d" d="M16.438,304.358A16.438,16.438,0,1,1,32.876,287.92,16.457,16.457,0,0,1,16.438,304.358Zm0-27.313A10.874,10.874,0,1,0,27.312,287.92a10.887,10.887,0,0,0-10.874-10.875Z" transform="translate(0 -169.618)"/><path class="a" d="M325.434,121.084a2.783,2.783,0,0,1-2.718-2.205L312.1,68.809h-6.343a2.782,2.782,0,1,1,0-5.564h8.6a2.782,2.782,0,0,1,2.721,2.2l11.087,52.275a2.784,2.784,0,0,1-2.724,3.36Z" transform="translate(-246.783)"/><path class="d" d="M122.376,113.309H111.588a2.782,2.782,0,1,1,0-5.564h10.788a2.782,2.782,0,1,1,0,5.564Z" transform="translate(-88.627 -36.247)"/></g></svg>