<?xml version="1.0" encoding="iso-8859-1"?>
<!-- Generator: Adobe Illustrator 19.0.0, SVG Export Plug-In . SVG Version: 6.00 Build 0)  -->
<svg version="1.1" id="Capa_1" xmlns="http://www.w3.org/2000/svg" xmlns:xlink="http://www.w3.org/1999/xlink" x="0px" y="0px"
	 viewBox="0 0 512.163 512.163" style="enable-background:new 0 0 512.163 512.163;" xml:space="preserve">
<g transform="translate(-1 -1)">
	<g transform="translate(2 10)">
		<path style="fill:#37474F;" d="M434.327,110.63c0,23.564-19.103,42.667-42.667,42.667c-4.334-0.013-8.644-0.645-12.8-1.877
			c-17.783-5.632-29.868-22.136-29.868-40.789s12.085-35.157,29.868-40.789c4.156-1.232,8.466-1.864,12.8-1.877
			C415.224,67.963,434.327,87.066,434.327,110.63z"/>
		<path style="fill:#41767F;" d="M391.66,119.163c-2.259-0.031-4.423-0.915-6.059-2.475c-0.771-0.816-1.38-1.772-1.792-2.816
			c-0.911-2.066-0.911-4.419,0-6.485c0.392-1.055,1.002-2.014,1.792-2.816c2.043-1.954,4.899-2.811,7.68-2.304
			c0.568,0.08,1.119,0.253,1.63,0.512c0.543,0.188,1.06,0.446,1.536,0.768l1.28,1.024c3.3,3.365,3.3,8.752,0,12.117
			c-0.407,0.365-0.835,0.707-1.28,1.024c-0.476,0.322-0.993,0.58-1.536,0.768c-0.511,0.259-1.062,0.432-1.63,0.512
			C392.746,119.092,392.204,119.15,391.66,119.163z"/>
		<path style="fill:#2E7D32;" d="M340.46,187.43v93.867h-179.2V187.43c0.028-9.414,7.653-17.039,17.067-17.067h145.067
			c2.418-0.019,4.809,0.506,6.997,1.536C336.507,174.648,340.446,180.724,340.46,187.43z"/>
		<path style="fill:#37474F;" d="M161.26,110.63c0,23.564-19.103,42.667-42.667,42.667c-4.334-0.013-8.644-0.645-12.8-1.877
			c-17.783-5.632-29.868-22.136-29.868-40.789s12.085-35.157,29.868-40.789c4.156-1.232,8.466-1.864,12.8-1.877
			C142.157,67.963,161.26,87.066,161.26,110.63z"/>
		<g>
			<ellipse style="fill:#607D8B;" cx="378.86" cy="110.63" rx="29.867" ry="40.789"/>
			<ellipse style="fill:#607D8B;" cx="105.793" cy="110.63" rx="29.867" ry="40.789"/>
		</g>
		<path style="fill:#41767F;" d="M118.593,119.163c-2.259-0.031-4.423-0.915-6.059-2.475c-0.771-0.816-1.38-1.772-1.792-2.816
			c-0.91-2.066-0.91-4.419,0-6.485c0.392-1.055,1.002-2.014,1.792-2.816c2.043-1.954,4.899-2.811,7.68-2.304
			c0.568,0.08,1.119,0.253,1.63,0.512c0.543,0.188,1.06,0.446,1.536,0.768l1.28,1.024c3.3,3.365,3.3,8.752,0,12.117
			c-0.407,0.365-0.835,0.707-1.28,1.024c-0.476,0.322-0.993,0.58-1.536,0.768c-0.511,0.259-1.062,0.432-1.63,0.512
			C119.68,119.092,119.137,119.15,118.593,119.163z"/>
		<path style="fill:#4CAF50;" d="M24.727,298.363h42.667v85.333H24.727c-9.426,0-17.067-7.641-17.067-17.067v-51.2
			C7.66,306.004,15.301,298.363,24.727,298.363z"/>
		<path style="fill:#2E7D32;" d="M502.593,262.865v130.731c0,13.824-13.141,21.931-22.741,13.995l-2.816-2.304l-10.547-8.789
			L452.05,384.55l-21.666-17.92h-21.658v-76.8h21.658l46.652-38.656l2.816-2.304C489.452,240.934,502.593,249.041,502.593,262.865z"
			/>
		<path style="fill:#AD1457;" d="M58.86,255.697h341.333c9.426,0,17.067,7.641,17.067,17.067v204.8
			c0,9.426-7.641,17.067-17.067,17.067H58.86c-9.426,0-17.067-7.641-17.067-17.067v-204.8
			C41.793,263.338,49.434,255.697,58.86,255.697z"/>
		<path style="fill:#E91E63;" d="M58.86,255.697h315.733c9.426,0,17.067,7.641,17.067,17.067v204.8
			c0,9.426-7.641,17.067-17.067,17.067H58.86c-9.426,0-17.067-7.641-17.067-17.067v-204.8
			C41.793,263.338,49.434,255.697,58.86,255.697z"/>
		<path style="fill:#2E7D32;" d="M92.993,289.83H314.86c9.426,0,17.067,7.641,17.067,17.067v85.333
			c0,9.426-7.641,17.067-17.067,17.067H92.993c-9.426,0-17.067-7.641-17.067-17.067v-85.333
			C75.927,297.471,83.568,289.83,92.993,289.83z"/>
		<g>
			<path style="fill:#4CAF50;" d="M314.86,183.488v72.209h-153.6v-72.209c1.246-8.245,8.778-14.038,17.067-13.124h119.467
				c2.383-0.02,4.752,0.378,6.997,1.178C310.343,172.981,314.381,177.771,314.86,183.488z"/>
			<path style="fill:#4CAF50;" d="M480.936,262.865v130.731c0.069,4.227-1.307,8.351-3.9,11.691l-10.547-8.789L452.05,384.55
				l-21.666-17.92h-21.658v-76.8h21.658l46.652-38.656C479.629,254.513,481.005,258.637,480.936,262.865z"/>
			<path style="fill:#4CAF50;" d="M92.993,289.83H289.26c9.426,0,17.067,7.641,17.067,17.067v85.333
				c0,9.426-7.641,17.067-17.067,17.067H92.993c-9.426,0-17.067-7.641-17.067-17.067v-85.333
				C75.927,297.471,83.568,289.83,92.993,289.83z"/>
		</g>
		<g>
			<path style="fill:#CFD8DC;" d="M161.26,349.563c0,14.138-11.462,25.6-25.6,25.6c-14.138,0-25.6-11.462-25.6-25.6
				c0-14.138,11.462-25.6,25.6-25.6C149.798,323.963,161.26,335.425,161.26,349.563z"/>
			<path style="fill:#CFD8DC;" d="M297.793,349.563c0,14.138-11.462,25.6-25.6,25.6s-25.6-11.462-25.6-25.6
				c0-14.138,11.462-25.6,25.6-25.6S297.793,335.425,297.793,349.563z"/>
		</g>
		<g>
			<path style="fill:#F4F4F4;" d="M135.66,349.563c0.006,9.152-4.874,17.611-12.8,22.187c-7.937-4.569-12.828-13.029-12.828-22.187
				s4.892-17.618,12.828-22.187C130.786,331.953,135.666,340.411,135.66,349.563z"/>
			<path style="fill:#F4F4F4;" d="M272.193,349.563c0.006,9.152-4.874,17.611-12.8,22.187c-7.937-4.569-12.828-13.029-12.828-22.187
				s4.892-17.618,12.828-22.187C267.319,331.953,272.199,340.411,272.193,349.563z"/>
		</g>
	</g>
	<g>
		<path d="M94.993,427.83H316.86c14.138,0,25.6-11.462,25.6-25.6v-85.333c0-14.138-11.462-25.6-25.6-25.6H94.993
			c-14.138,0-25.6,11.462-25.6,25.6v85.333C69.393,416.368,80.855,427.83,94.993,427.83z M86.46,316.897
			c0-4.713,3.821-8.533,8.533-8.533H316.86c4.713,0,8.533,3.821,8.533,8.533v85.333c0,4.713-3.82,8.533-8.533,8.533H94.993
			c-4.713,0-8.533-3.821-8.533-8.533V316.897z"/>
		<path d="M137.66,393.697c18.851,0,34.133-15.282,34.133-34.133c-0.035-6.01-1.673-11.901-4.745-17.067h47.411
			c4.713,0,8.533-3.82,8.533-8.533s-3.821-8.533-8.533-8.533h-76.8c-18.851,0-34.133,15.282-34.133,34.133
			C103.527,378.415,118.809,393.697,137.66,393.697z M137.66,342.497c9.426,0,17.067,7.641,17.067,17.067
			s-7.641,17.067-17.067,17.067c-9.426,0-17.067-7.641-17.067-17.067S128.234,342.497,137.66,342.497z"/>
		<path d="M197.393,376.63c-4.713,0-8.533,3.821-8.533,8.533s3.821,8.533,8.533,8.533h76.8c18.851,0,34.133-15.282,34.133-34.133
			c0-18.851-15.282-34.133-34.133-34.133c-18.851,0-34.133,15.282-34.133,34.133c0.035,6.01,1.673,11.901,4.745,17.067H197.393z
			 M257.127,359.563c0-9.426,7.641-17.067,17.067-17.067s17.067,7.641,17.067,17.067s-7.641,17.067-17.067,17.067
			S257.127,368.989,257.127,359.563z"/>
		<path d="M125.372,113.547c-0.477-0.322-0.993-0.58-1.536-0.768c-0.511-0.259-1.062-0.432-1.63-0.512
			c-2.781-0.507-5.637,0.35-7.68,2.304c-0.79,0.802-1.4,1.761-1.792,2.816c-0.91,2.066-0.91,4.419,0,6.485
			c0.412,1.044,1.021,2,1.792,2.816c1.637,1.561,3.805,2.445,6.067,2.475c0.541-0.014,1.081-0.071,1.613-0.171
			c0.568-0.08,1.119-0.253,1.63-0.512c0.543-0.188,1.06-0.446,1.536-0.768c0.445-0.317,0.873-0.659,1.28-1.024
			c3.3-3.365,3.3-8.752,0-12.117L125.372,113.547z"/>
		<path d="M393.66,240.097c48.322,0.003,91.888-29.104,110.381-73.748c18.493-44.644,8.27-96.032-25.901-130.199
			C437.078-5.085,372.269-10.711,324.715,22.831s-64,96.481-38.934,148.999h-57.31c25.01-52.512,8.548-115.405-38.982-148.93
			S77.189-5.03,36.113,36.15C-2.637,74.8-10.153,134.845,17.875,181.854S102.3,250.8,154.727,235.088v22.076H60.86
			c-14.138,0-25.6,11.462-25.6,25.6v17.067h-8.533c-14.138,0-25.6,11.462-25.6,25.6v51.2c0,14.138,11.462,25.6,25.6,25.6h8.533
			v85.333c0,14.138,11.462,25.6,25.6,25.6h341.333c14.138,0,25.6-11.462,25.6-25.6v-94.541l45.056,31.573
			c7.825,5.476,18.048,6.14,26.517,1.723s13.773-13.181,13.761-22.732V272.873c0-9.545-5.31-18.297-13.776-22.706
			c-8.466-4.409-18.681-3.741-26.502,1.731l-45.056,31.539v-0.674c0-14.138-11.462-25.6-25.6-25.6h-51.2v-25.003
			C364.612,237.387,379.073,240.076,393.66,240.097z M345.148,181.217l18.893-18.901c6.276,4.475,13.486,7.465,21.086,8.747v51.465
			c-11.821-0.965-23.377-4.016-34.133-9.011V197.43C350.977,191.512,348.912,185.783,345.148,181.217z M343.228,112.097h-51.55
			c1.73-21.209,10.089-41.337,23.893-57.532l36.446,36.446C347.527,97.282,344.522,104.493,343.228,112.097z M359.527,120.63
			c0-18.851,15.282-34.133,34.133-34.133c18.851,0,34.133,15.282,34.133,34.133s-15.282,34.133-34.133,34.133
			C374.809,154.763,359.527,139.481,359.527,120.63z M402.193,171.062c7.6-1.281,14.81-4.272,21.086-8.747l36.446,36.446
			c-16.2,13.789-36.327,22.133-57.532,23.851V171.062z M435.345,150.249c4.475-6.276,7.465-13.486,8.747-21.086h51.55
			c-1.73,21.209-10.089,41.337-23.893,57.532L435.345,150.249z M444.092,112.097c-1.281-7.6-4.272-14.81-8.747-21.086l36.446-36.446
			c13.789,16.2,22.133,36.327,23.851,57.532H444.092z M423.279,78.945c-6.276-4.475-13.486-7.465-21.086-8.747v-51.55
			c21.209,1.73,41.337,10.089,57.532,23.893L423.279,78.945z M385.127,70.198c-7.6,1.281-14.81,4.272-21.086,8.747l-36.446-36.446
			c16.2-13.789,36.327-22.133,57.532-23.851V70.198z M291.652,129.163h51.575c1.281,7.6,4.272,14.81,8.747,21.086l-22.067,22.067
			c-1.487-0.297-2.998-0.459-4.514-0.486h-20.326C297.474,158.784,292.891,144.207,291.652,129.163z M154.727,197.43v19.738
			c-8.26,2.931-16.865,4.781-25.6,5.504v-51.61c7.6-1.281,14.81-4.272,21.086-8.747l14.763,14.763
			C158.546,181.871,154.749,189.411,154.727,197.43z M171.025,112.097c-1.281-7.6-4.272-14.81-8.747-21.086l36.446-36.446
			c13.789,16.2,22.133,36.327,23.851,57.532H171.025z M120.593,154.763c-18.851,0-34.133-15.282-34.133-34.133
			s15.282-34.133,34.133-34.133s34.133,15.282,34.133,34.133c0,9.053-3.596,17.735-9.997,24.136
			C138.328,151.167,129.646,154.763,120.593,154.763z M150.212,78.945c-6.276-4.475-13.486-7.465-21.086-8.747v-51.55
			c21.209,1.73,41.337,10.089,57.532,23.893L150.212,78.945z M112.06,70.198c-7.6,1.281-14.81,4.272-21.086,8.747L54.528,42.499
			c16.2-13.789,36.327-22.133,57.532-23.851V70.198z M78.908,91.011c-4.475,6.276-7.465,13.486-8.747,21.086h-51.55
			C20.341,90.887,28.7,70.76,42.505,54.565L78.908,91.011z M70.161,129.163c1.281,7.6,4.272,14.81,8.747,21.086l-36.446,36.446
			c-13.789-16.2-22.133-36.327-23.851-57.532H70.161z M90.974,162.315c6.276,4.475,13.486,7.465,21.086,8.747v51.55
			c-21.209-1.73-41.337-10.089-57.532-23.893L90.974,162.315z M183.859,171.83l-21.581-21.581
			c4.475-6.276,7.465-13.486,8.747-21.086h51.413c-1.166,15.026-5.67,29.602-13.184,42.667H183.859z M26.727,385.163
			c-4.713,0-8.533-3.821-8.533-8.533v-51.2c0-4.713,3.821-8.533,8.533-8.533h8.533v68.267H26.727z M482.637,265.884
			c2.606-1.822,6.01-2.044,8.83-0.575c2.821,1.469,4.591,4.384,4.593,7.564v130.714c-0.002,3.18-1.772,6.095-4.593,7.564
			c-2.821,1.469-6.224,1.247-8.83-0.575l-20.71-14.498v-53.581c0-4.713-3.82-8.533-8.533-8.533s-8.533,3.82-8.533,8.533v41.634
			l-17.067-11.947v-67.908L482.637,265.884z M410.727,282.763v204.8c0,4.713-3.821,8.533-8.533,8.533H60.86
			c-4.713,0-8.533-3.82-8.533-8.533v-204.8c0-4.713,3.821-8.533,8.533-8.533h341.333C406.906,274.23,410.727,278.05,410.727,282.763
			z M171.793,257.163V197.43c0-4.713,3.821-8.533,8.533-8.533h145.067c1.211-0.01,2.408,0.259,3.499,0.785
			c3.052,1.372,5.021,4.402,5.035,7.748v59.733H171.793z"/>
		<path d="M387.601,126.689c1.635,1.559,3.799,2.443,6.059,2.475c0.541-0.014,1.081-0.071,1.613-0.171
			c0.568-0.08,1.119-0.253,1.63-0.512c0.543-0.188,1.06-0.446,1.536-0.768c0.445-0.317,0.873-0.659,1.28-1.024
			c3.3-3.365,3.3-8.752,0-12.117l-1.28-1.024c-0.477-0.322-0.993-0.58-1.536-0.768c-0.511-0.259-1.062-0.432-1.63-0.512
			c-2.781-0.507-5.637,0.35-7.68,2.304c-0.79,0.802-1.4,1.761-1.792,2.816c-0.911,2.066-0.911,4.419,0,6.485
			C386.216,124.918,386.827,125.873,387.601,126.689z"/>
		<path d="M325.393,461.963H205.927c-4.713,0-8.533,3.821-8.533,8.533c0,4.713,3.821,8.533,8.533,8.533h119.467
			c4.713,0,8.533-3.821,8.533-8.533C333.927,465.784,330.106,461.963,325.393,461.963z"/>
		<path d="M359.527,479.03h25.6c4.713,0,8.533-3.821,8.533-8.533c0-4.713-3.82-8.533-8.533-8.533h-25.6
			c-4.713,0-8.533,3.821-8.533,8.533C350.993,475.209,354.814,479.03,359.527,479.03z"/>
		<path d="M257.127,205.963h-51.2c-4.713,0-8.533,3.82-8.533,8.533s3.821,8.533,8.533,8.533h51.2c4.713,0,8.533-3.821,8.533-8.533
			S261.839,205.963,257.127,205.963z"/>
		<path d="M308.327,205.963H291.26c-4.713,0-8.533,3.82-8.533,8.533s3.82,8.533,8.533,8.533h17.067c4.713,0,8.533-3.821,8.533-8.533
			S313.039,205.963,308.327,205.963z"/>
	</g>
</g>
<g>
</g>
<g>
</g>
<g>
</g>
<g>
</g>
<g>
</g>
<g>
</g>
<g>
</g>
<g>
</g>
<g>
</g>
<g>
</g>
<g>
</g>
<g>
</g>
<g>
</g>
<g>
</g>
<g>
</g>
</svg>
