<svg xmlns="http://www.w3.org/2000/svg" width="82.322" height="74.236" viewBox="0 0 82.322 74.236"><defs><style>.a{fill:#ff80a9;}.b{fill:#00cb75;}.c{fill:#009859;}.d{fill:#bee75e;}.e{fill:#d7e8ff;}.f{fill:#ebf3ff;}</style></defs><g transform="translate(0 -25.145)"><g transform="translate(0 75.263)"><path class="a" d="M29.035,461.68H2.412a2.412,2.412,0,1,1,0-4.824H29.035a2.412,2.412,0,1,1,0,4.824Z" transform="translate(0 -437.562)"/><path class="a" d="M19.388,401.68H2.412a2.412,2.412,0,1,1,0-4.824H19.388a2.412,2.412,0,1,1,0,4.824Z" transform="translate(0 -387.209)"/><path class="a" d="M9.741,341.68H2.412a2.412,2.412,0,1,1,0-4.824H9.741a2.412,2.412,0,1,1,0,4.824Z" transform="translate(0 -336.856)"/></g><path class="b" d="M150.9,258.1v-4.718a2.412,2.412,0,0,0-2.412-2.412h-28.9L92.279,223.511c-.757-.762-2.474-.521-3.416,0l-4.484,2.346a2.411,2.411,0,0,0-.546.41,7.243,7.243,0,0,0,0,10.232l25.419,25.419a11.981,11.981,0,0,0,8.527,3.532h25.886a7.263,7.263,0,0,0,7.233-7.113c0-.038,0-.077,0-.123s0-.068,0-.1Z" transform="translate(-68.579 -166.064)"/><path class="c" d="M189.834,300.489V295.77a2.412,2.412,0,0,0-2.412-2.412h-28.9L138.8,273.529l-10.693,10.693L148.187,304.3a11.981,11.981,0,0,0,8.527,3.532H182.6a7.263,7.263,0,0,0,7.233-7.113c0-.038,0-.077,0-.123s0-.068,0-.1Z" transform="translate(-107.513 -208.448)"/><path class="d" d="M184.666,146.292a11.979,11.979,0,0,0-8.527-3.532c-.892,0-1.721-.035-2.492-.1l-2.412,1.052-2.412-2.022a12.463,12.463,0,0,1-3.442-1.829l-3,.389.34-4.555a15.781,15.781,0,0,1,.643-5.849,2.931,2.931,0,0,0-.61-2.331,2.426,2.426,0,0,0-1.957-.959h-.027c-.211,0-5.2-.029-7.706-2.538-.745-.745-.859-1.359-1.069-2.8-.322-2.22-.764-5.261-4.693-9.19a2.412,2.412,0,0,0-3.411,0L126.16,129.762l28.175,28.175a6.71,6.71,0,0,0,4.117,1.705H188.2v-1.267c0-2.044,0-3.556,0-3.556a11.98,11.98,0,0,0-3.532-8.527Z" transform="translate(-105.875 -72.32)"/><path class="b" d="M233.327,203.989a11.979,11.979,0,0,0-8.527-3.532c-.892,0-1.721-.035-2.492-.1L219.9,201.41l-2.412-2.022a12.46,12.46,0,0,1-3.442-1.829l-3,.389.34-4.555a15.781,15.781,0,0,1,.643-5.849,2.931,2.931,0,0,0-.61-2.331,2.426,2.426,0,0,0-1.957-.959h-.027c-.211,0-5.2-.029-7.706-2.538a2.968,2.968,0,0,1-.874-1.643l-16.71,16.71L203,215.634a6.71,6.71,0,0,0,4.117,1.705h29.744v-1.267c0-2.044,0-3.556,0-3.556a11.98,11.98,0,0,0-3.532-8.527Z" transform="translate(-154.537 -130.017)"/><path class="e" d="M391.5,305.273a2.412,2.412,0,1,0,4.824,0v-4.1a19.231,19.231,0,0,1-4.824-.971Z" transform="translate(-328.552 -230.831)"/><path class="e" d="M327.337,270.936a2.4,2.4,0,0,0,1.705-.706l3.145-3.145a13.453,13.453,0,0,1-1.388-1.218,4.951,4.951,0,0,1-1.267-2.947l-3.9,3.9a2.412,2.412,0,0,0,1.705,4.117Z" transform="translate(-272.682 -199.544)"/><path class="f" d="M269.669,42.792a2.412,2.412,0,0,0-.706-1.705L253.727,25.851a2.412,2.412,0,0,0-3.411,0L236.46,39.707c4.89,4.89,3.006,9.316,6.168,12.478,3.809,3.809,10.714,5.4,13.305,5.341L268.962,44.5a2.412,2.412,0,0,0,.706-1.705Z" transform="translate(-198.441 0)"/><path class="e" d="M293.538,76.916,274.822,95.632c3.81,3.81,10.714,5.4,13.305,5.341l13.029-13.029a2.411,2.411,0,0,0,0-3.411Z" transform="translate(-230.635 -43.447)"/></g></svg>