<svg id="flat" enable-background="new 0 0 512 512" height="512" viewBox="0 0 512 512" width="512" xmlns="http://www.w3.org/2000/svg"><path d="m200 440h112v48h-112z" fill="#306bb4"/><path d="m288 440h24v48h-24z" fill="#3c9ddc"/><path d="m104 264h304v87.225c0 57.866-46.909 104.775-104.775 104.775h-94.45c-57.866 0-104.775-46.909-104.775-104.775z" fill="#efad15"/><path d="m335.225 424h-94.45c-57.866 0-104.775-46.909-104.775-104.775v-55.225h-32v87.225c0 57.866 46.909 104.775 104.775 104.775h94.45c35.791.02 69.112-18.245 88.347-48.428-16.822 10.758-36.379 16.46-56.347 16.428z" fill="#cf7e2c"/><path d="m122.343 221.657-4-4c-14.169-14.17-14.169-37.144 0-51.314 7.921-7.921 7.921-20.764 0-28.686l-16-16c-14.169-14.17-14.169-37.144 0-51.314 7.909-7.927 7.909-20.759 0-28.686l-12-12 11.314-11.314 12 12c14.169 14.17 14.169 37.144 0 51.314-7.909 7.927-7.909 20.759 0 28.686l16 16c14.147 14.179 14.147 37.135 0 51.314-7.921 7.921-7.921 20.764 0 28.686l4 4z" fill="#66c3ea"/><path d="m246.059 221.657-4-4c-14.147-14.179-14.147-37.135 0-51.314 7.908-7.927 7.908-20.759 0-28.686l-16-16c-14.147-14.179-14.147-37.135 0-51.314l20-20 11.314 11.314-20 20c-7.921 7.921-7.921 20.764 0 28.686l16 16c14.147 14.179 14.147 37.135 0 51.314-7.921 7.921-7.921 20.764 0 28.686l4 4z" fill="#66c3ea"/><path d="m296 164c-.001 12.807 5.087 25.089 14.143 34.144l4.14 4.14c8.783 8.783 20.696 13.717 33.117 13.716h.5c12.838.02 25.157-5.068 34.24-14.142l5.014-5.014c18.021-18.02 25.844-43.854 20.846-68.844l72.588-65.412c4.715-4.19 7.412-10.197 7.412-16.505 0-12.196-9.887-22.083-22.083-22.083-6.306.001-12.311 2.698-16.5 7.412l-65.417 72.588c-24.99-4.998-50.824 2.824-68.844 20.844l-5.014 5.014c-9.055 9.055-14.142 21.336-14.142 34.142z" fill="#c6de3a"/><path d="m466.948 24.026c3.273 3.953 5.06 8.925 5.052 14.057 0 6.308-2.697 12.315-7.412 16.505l-72.588 65.412c4.998 24.99-2.824 50.824-20.844 68.844l-5.014 5.014c-9.083 9.074-21.403 14.162-34.242 14.142h-.5c-4.244-.004-8.468-.586-12.556-1.728 8.185 6.304 18.225 9.725 28.556 9.728h.5c12.838.02 25.157-5.068 34.24-14.142l5.014-5.014c18.021-18.02 25.844-43.854 20.846-68.844l72.588-65.412c4.715-4.19 7.412-10.197 7.412-16.505-.001-11.795-9.27-21.507-21.052-22.057z" fill="#9fc83e"/><path d="m104 248h304c8.837 0 16 7.163 16 16 0 8.837-7.163 16-16 16h-304c-8.837 0-16-7.163-16-16 0-8.837 7.163-16 16-16z" fill="#fec941"/><path d="m194.343 237.657-16-16c-11.942-11.969-11.942-31.345 0-43.314 5.712-5.712 5.712-14.974 0-20.686l-8-8 11.314-11.314 8 8c11.96 11.961 11.96 31.353 0 43.314-5.712 5.712-5.712 14.974 0 20.686l16 16z" fill="#66c3ea"/><path d="m294.935 343.361c-23.965-14.379-53.905-14.379-77.87 0-25.077 15.046-56.579 14.296-80.912-1.925l-32.153-21.436v31.225c0 57.866 46.909 104.775 104.775 104.775h94.45c57.866 0 104.775-46.909 104.775-104.775v-31.225l-32.153 21.436c-24.333 16.221-55.835 16.971-80.912 1.925z" fill="#306bb4"/><path d="m335.225 424h-94.45c-48.682-.004-90.952-33.527-102.047-80.927-.866-.529-1.726-1.071-2.575-1.637l-32.153-21.436v31.225c0 57.866 46.909 104.775 104.775 104.775h94.45c35.791.02 69.112-18.245 88.347-48.428-16.822 10.758-36.379 16.46-56.347 16.428z" fill="#0a4ea9"/></svg>