<svg height="472pt" viewBox="-3 0 471 472" width="472pt" xmlns="http://www.w3.org/2000/svg"><path d="m172.117188 27.175781c14.238281 6.035157 20.882812 22.472657 14.847656 36.707031l-9.371094 22.097657c-6.039062 14.234375-22.472656 20.882812-36.710938 14.84375-14.238281-6.035157-20.882812-22.472657-14.84375-36.710938l9.367188-22.09375c6.039062-14.238281 22.472656-20.882812 36.710938-14.84375zm0 0" fill="#fec9a3"/><path d="m172.117188 27.199219c-6.808594-2.894531-14.484376-2.972657-21.34375-.207031.214843.085937.4375.113281.65625.207031 14.234374 6.039062 20.878906 22.476562 14.839843 36.710937l-9.371093 22.066406c-2.902344 6.867188-8.433594 12.289063-15.359376 15.054688 14.113282 5.582031 30.105469-1.09375 36.058594-15.054688l9.367188-22.089843c6.023437-14.230469-.625-30.648438-14.847656-36.6875zm0 0" fill="#fec093"/><path d="m160.5 472h24l8-40 16-24-16-24 .945312-16h-39.65625zm0 0" fill="#fec9a3"/><path d="m60.964844 8h-60.464844l8 24 48 8 22.398438-22.398438c-3.996094-6-10.726563-9.601562-17.933594-9.601562zm0 0" fill="#fec9a3"/><path d="m240.5 176c-15.144531-10.09375-34.101562-12.632812-51.367188-6.878906l-12.632812-1.121094v-24l32-16 84.566406-84.566406-17.566406-23.433594-91 84h-48l-57.601562-86.398438-22.398438 22.398438 48 88-2.710938 6.785156c-7.511718 18.773438.625 40.171875 18.710938 49.214844l24 40 9.289062 144h39.65625l7.054688-120 181.070312-99.902344-19.566406-26.097656zm0 0" fill="#3d4d63"/><path d="m424.5 88h-32l-8 24-22.496094 10 19.566406 26.097656 50.929688-28.097656 32-16v-32zm0 0" fill="#fec9a3"/><path d="m296.5 40 48-8 16-24h-63.566406c-5.421875 0-10.644532 2.042969-14.625 5.71875l-6.808594 6.28125 17.601562 23.433594zm0 0" fill="#fec9a3"/><path d="m224.5 24c0 13.253906-10.746094 24-24 24s-24-10.746094-24-24 10.746094-24 24-24 24 10.746094 24 24zm0 0" fill="#7a432a"/><path d="m172.117188 27.199219c-8.304688-3.511719-17.792969-2.796875-25.472657 1.921875 5.464844 13.503906 14.484375 25.28125 26.09375 34.078125l11.019531 8.265625 3.199219-7.554688c6.039063-14.234375-.605469-30.671875-14.839843-36.710937zm0 0" fill="#7a432a"/><path d="m362.003906 122-121.503906 54c-10.261719-6.804688-22.398438-10.222656-34.703125-9.777344-12.492187 36.757813-32.449219 70.53125-58.625 99.203125l6.617187 102.574219h39.65625l7.054688-120 181.070312-99.902344zm0 0" fill="#374559"/></svg>