<svg id="Layer_1" enable-background="new 0 0 512 512" height="512" viewBox="0 0 512 512" width="512" xmlns="http://www.w3.org/2000/svg"><g><g><g><g><g><g id="XMLID_1969_"><g id="XMLID_1970_"><g id="XMLID_1971_"><g id="XMLID_1972_"><g id="XMLID_1973_"><g id="XMLID_1974_"><g id="XMLID_1975_"><g id="XMLID_1976_"><g id="XMLID_1977_"><g id="XMLID_1978_"><g id="XMLID_1979_"><g id="XMLID_1980_"><g id="XMLID_1981_"><g id="XMLID_1983_"><g id="XMLID_1984_"><circle cx="256" cy="256" fill="#98f9ff" r="256"/></g></g></g></g></g></g></g></g></g></g></g></g></g></g></g></g></g></g></g><path d="m505.317 197.662-63.881-63.881s-53.939 89.366-58.645 91.907l-92.075-91.907s-65.284 63.08-55.564 71.465c-5.014 2-15.476.799-20.182 3.341l-74.974-74.806-112.575 145.194 85.689 84.915c-1.88 5.326-12.827 29.79-12.827 29.79l115.1 115.1c13.23 2.109 26.794 3.22 40.618 3.22 141.385 0 256-114.615 256-256-.001-20.07-2.316-39.598-6.684-58.338z" fill="#7dd5f4"/><g><g><path d="m470.436 219.361c-12.446-15.275-49.714-28.852-63.716-28.852s-51.27 13.578-63.715 28.852c-11.182 13.723-14.143 24.383-14.143 34.759v24.855h155.718s0-14.48 0-24.855c-.001-10.376-2.962-21.036-14.144-34.759z" fill="#f79b14"/><circle cx="406.72" cy="163.52" fill="#9e5a2d" r="45.724"/><path d="m168.995 219.361c-12.446-15.275-49.714-28.852-63.716-28.852s-51.269 13.578-63.716 28.852c-11.182 13.723-14.143 24.383-14.143 34.759v24.855h155.718s0-14.48 0-24.855c0-10.376-2.961-21.036-14.143-34.759z" fill="#ff7d47"/><circle cx="105.279" cy="163.52" fill="#ffdba9" r="45.724"/><path d="m319.716 219.361c-12.446-15.275-49.714-28.852-63.716-28.852s-51.27 13.578-63.716 28.852c-11.182 13.723-14.143 24.383-14.143 34.759v24.855h155.718s0-14.48 0-24.855c0-10.376-2.962-21.036-14.143-34.759z" fill="#b1d040"/><path d="m333.86 254.12v24.86h-77.86v-88.47c6.52 0 18.1 2.94 29.85 7.64 13.49 5.38 27.22 13.05 33.87 21.21 11.18 13.72 14.14 24.38 14.14 34.76z" fill="#00a763"/><circle cx="256" cy="163.52" fill="#875d54" r="45.724"/></g><g><path d="m397.574 334.066c-12.446-15.275-49.714-28.852-63.716-28.852s-51.269 13.578-63.716 28.852c-11.181 13.723-14.142 24.383-14.142 34.759s0 24.855 0 24.855h155.718s0-14.48 0-24.855-2.962-21.036-14.144-34.759z" fill="#ff4a4a"/><circle cx="333.859" cy="278.225" fill="#fcc78d" r="45.724"/><path d="m241.857 334.066c-12.446-15.275-49.714-28.852-63.715-28.852-14.002 0-51.269 13.578-63.716 28.852-11.182 13.723-14.143 24.383-14.143 34.759s0 24.855 0 24.855h155.717s0-14.48 0-24.855-2.961-21.036-14.143-34.759z" fill="#ffc83e"/><circle cx="178.141" cy="278.225" fill="#875d54" r="45.724"/></g></g><path d="m301.72 163.52c0 13.84-6.15 26.25-15.87 34.63-8.01 6.91-18.45 11.09-29.85 11.09v-91.44c25.25 0 45.72 20.47 45.72 45.72z" fill="#68463e"/></g></svg>