<svg xmlns="http://www.w3.org/2000/svg" width="80.293" height="70.215" viewBox="0 0 80.293 70.215"><defs><style>.a{fill:#3ab4fb;}.b{fill:#1d9cfd;}.c{fill:#eff6fe;}.d{fill:#d9e4ef;}.e{fill:#ffcfbe;}.f{fill:#ffb826;}.g{fill:#f9bcaa;}.h{fill:#ff7579;}.i{fill:#fe4a60;}</style></defs><g transform="translate(0 -32)"><path class="a" d="M259.428,305.418a2.352,2.352,0,0,1-2.211-3.157L267.3,274.546a2.353,2.353,0,1,1,4.422,1.608l-10.078,27.715A2.354,2.354,0,0,1,259.428,305.418Z" transform="translate(-216.761 -203.203)"/><path class="b" d="M365.352,305.419a2.354,2.354,0,0,1-2.208-1.542l-10.179-27.716a2.352,2.352,0,0,1,4.416-1.622l10.179,27.716A2.354,2.354,0,0,1,365.352,305.419Z" transform="translate(-297.489 -203.203)"/><path class="c" d="M235.468,32H200.192a7.391,7.391,0,0,0-7.391,7.391V67.108a7.391,7.391,0,0,0,7.391,7.391h35.276a7.391,7.391,0,0,0,7.391-7.391V39.391A7.391,7.391,0,0,0,235.468,32Z" transform="translate(-162.565)"/><path class="d" d="M368.377,32H350.43V74.5h17.947a7.391,7.391,0,0,0,7.391-7.391V39.391A7.391,7.391,0,0,0,368.377,32Z" transform="translate(-295.475)"/><path class="e" d="M50.491,72.246A10.246,10.246,0,1,1,40.246,62,10.246,10.246,0,0,1,50.491,72.246Z" transform="translate(-25.295 -25.295)"/><path class="f" d="M234.265,193.652a2.353,2.353,0,0,1-1.052-3.156l6.3-12.6a2.352,2.352,0,1,1,4.208,2.1l-6.3,12.6A2.352,2.352,0,0,1,234.265,193.652Z" transform="translate(-196.43 -121.921)"/><path class="g" d="M105.575,72.243A10.246,10.246,0,0,1,95.328,82.488V62A10.246,10.246,0,0,1,105.575,72.243Z" transform="translate(-80.378 -25.292)"/><path class="a" d="M284.615,92.943h-25.2a2.352,2.352,0,1,1,0-4.7h25.2a2.352,2.352,0,0,1,0,4.7Z" transform="translate(-216.752 -47.419)"/><g transform="translate(54.955 40.819)"><path class="b" d="M363.337,157.2H352.782a2.352,2.352,0,0,1,0-4.7h10.555a2.352,2.352,0,0,1,0,4.7Z" transform="translate(-350.43 -142.422)"/><path class="b" d="M363.337,221.471H352.782a2.352,2.352,0,0,1,0-4.7h10.555a2.352,2.352,0,0,1,0,4.7Z" transform="translate(-350.43 -196.61)"/><path class="b" d="M363.337,88.238H350.43v4.7h12.907a2.352,2.352,0,0,0,0-4.7Z" transform="translate(-350.43 -88.238)"/></g><path class="h" d="M22.509,237.686H7.392a2.352,2.352,0,0,1-2.352-2.352V222.185A7.4,7.4,0,0,1,0,215.177v-7.559a14.832,14.832,0,0,1,4.382-10.573,15.027,15.027,0,0,1,10.568-4.377h2.079c4.126,0,6.545,1.511,9.934,3.2,3.733,1.856,8.39,4.172,11.359,5.651a6.121,6.121,0,0,1,3.066,7.446l-.009.028a6.443,6.443,0,0,1-8.987,3.68L24.862,208.9v26.43A2.353,2.353,0,0,1,22.509,237.686Z" transform="translate(0 -135.472)"/><path class="i" d="M118.7,201.516c-2.97-1.479-7.627-3.795-11.36-5.651-3.389-1.685-5.807-3.2-9.934-3.2h-2.08v45.018h7.559a2.352,2.352,0,0,0,2.352-2.352V208.9l7.531,3.765a6.443,6.443,0,0,0,8.987-3.68l.009-.027A6.121,6.121,0,0,0,118.7,201.516Z" transform="translate(-80.378 -135.472)"/></g></svg>