<svg id="Capa_1" enable-background="new 0 0 512 512" height="512" viewBox="0 0 512 512" width="512" xmlns="http://www.w3.org/2000/svg"><g><g fill="#e69824"><path d="m419.816 196.358h-99.205c-4.267 0-7.726-3.459-7.726-7.726v-78.665c0-4.267 3.459-7.726 7.726-7.726h99.205c25.948 0 47.058 21.111 47.058 47.059s-21.109 47.058-47.058 47.058zm-91.478-15.453h91.478c17.428 0 31.606-14.179 31.606-31.606s-14.178-31.606-31.606-31.606h-91.478z"/><path d="m191.388 196.358h-99.204c-25.948 0-47.058-21.111-47.058-47.059s21.11-47.059 47.058-47.059h99.205c4.267 0 7.726 3.459 7.726 7.726v78.665c0 4.267-3.46 7.727-7.727 7.727zm-99.204-78.665c-17.428 0-31.606 14.179-31.606 31.606s14.178 31.606 31.606 31.606h91.478v-63.212z"/></g><path d="m232.867 226.197h46.266v134.51h-46.266z" fill="#e9a52d"/><path d="m232.867 287.75c7.471 1.535 15.208 2.342 23.133 2.342s15.662-.807 23.133-2.342v-61.553h-46.266z" fill="#e69824"/><path d="m141.621 147.407v-96.821h228.757v96.821c0 63.17-51.209 114.379-114.379 114.379s-114.378-51.209-114.378-114.379z" fill="#eec06b"/><path d="m141.621 50.586h228.757v34.207h-228.757z" fill="#e9a52d"/><path d="m333.262 50.586v96.821c0 56.85-41.478 104.004-95.82 112.872 6.041.986 12.239 1.507 18.558 1.507 63.17 0 114.379-51.209 114.379-114.379v-96.821z" fill="#e9a52d"/><path d="m365.628 512h60.43c25.43 0 43.622-24.581 36.19-48.901l-37.269-121.964c-3.572-11.69-14.361-19.675-26.585-19.675h-58.476c-8.777 0-17.039 4.145-22.286 11.182s-13.508 11.182-22.286 11.182h-78.693c-8.777 0-17.039-4.145-22.286-11.182s-13.508-11.182-22.286-11.182h-58.476c-12.224 0-23.013 7.985-26.585 19.675l-37.268 121.964c-7.432 24.32 10.76 48.901 36.19 48.901h60.43c7.959 0 15.122-3.957 20.387-9.926 59.285-67.206 119.198-67.206 178.483 0 5.265 5.969 12.427 9.926 20.386 9.926z" fill="#8c818f"/><path d="m461.29 459.962c-5.444 13.793-18.825 24.031-35.232 24.031h-60.43c-7.959 0-15.122-3.957-20.387-9.926-59.285-67.206-119.198-67.206-178.483 0-5.265 5.968-12.428 9.926-20.387 9.926h-60.43c-16.407 0-29.788-10.238-35.232-24.031l-.959 3.137c-7.43 24.32 10.762 48.901 36.192 48.901h60.43c7.959 0 15.122-3.957 20.387-9.926 59.285-67.206 119.198-67.206 178.483 0 5.265 5.968 12.428 9.926 20.387 9.926h60.43c25.43 0 43.622-24.581 36.19-48.901z" fill="#766d78"/><path d="m177.632 384.855h-15.526c-1.025 0-1.855-.831-1.855-1.855v-15.526c0-4.032-3.269-7.301-7.301-7.301h-13.605c-4.032 0-7.301 3.269-7.301 7.301v15.526c0 1.025-.831 1.855-1.855 1.855h-15.526c-4.032 0-7.301 3.269-7.301 7.301v13.605c0 4.032 3.269 7.301 7.301 7.301h15.526c1.025 0 1.855.831 1.855 1.855v15.526c0 4.032 3.269 7.301 7.301 7.301h13.605c4.032 0 7.301-3.269 7.301-7.301v-15.526c0-1.025.831-1.855 1.855-1.855h15.526c4.032 0 7.301-3.269 7.301-7.301v-13.605c0-4.033-3.269-7.301-7.301-7.301z" fill="#544f56"/><ellipse cx="218.883" cy="458.508" fill="#77d1b3" rx="24.482" ry="24.482" transform="matrix(.967 -.257 .257 .967 -110.352 71.54)"/><ellipse cx="293.117" cy="458.508" fill="#77d1b3" rx="24.482" ry="24.482" transform="matrix(.967 -.257 .257 .967 -107.865 90.594)"/><circle cx="367.689" cy="398.958" fill="#b1abb4" r="38.266"/><path d="m96.78 11.23v28.125c0 6.202 5.028 11.23 11.23 11.23h295.98c6.202 0 11.23-5.028 11.23-11.23v-28.125c0-6.202-5.028-11.23-11.23-11.23h-295.98c-6.202 0-11.23 5.028-11.23 11.23z" fill="#eec06b"/><path d="m403.99 0h-31.211c6.202 0 11.23 5.028 11.23 11.23v28.125c0 6.202-5.028 11.23-11.23 11.23h31.211c6.202 0 11.23-5.028 11.23-11.23v-28.125c0-6.202-5.028-11.23-11.23-11.23z" fill="#e9a52d"/></g></svg>