<svg xmlns="http://www.w3.org/2000/svg" width="72.362" height="75.912" viewBox="0 0 72.362 75.912"><defs><style>.a{fill:#b35c4b;}.b{fill:#8b432d;}.c{fill:#fedbab;}.d{fill:#fd3c65;}.e{fill:#fec478;}.f{fill:#7fbf00;}.g{fill:#6ecd24;}.h{fill:#66bd21;}.i{fill:#5dad1d;}</style></defs><g transform="translate(-0.004 0)"><path class="a" d="M210.207,226.638l-7.166,17.569-14.84-.4-16.96-.445L167,225.348a10.5,10.5,0,0,1,7.844-4.448,14.474,14.474,0,0,1,26.712,0A10.74,10.74,0,0,1,210.207,226.638Z" transform="translate(-143.395 -180.572)"/><path class="b" d="M339,226.638l-7.166,17.569-14.84-.4v-31.8a14.78,14.78,0,0,1,13.356,8.9A10.74,10.74,0,0,1,339,226.638Z" transform="translate(-272.192 -180.572)"/><path class="c" d="M97.279,304.265l-12.3,18.681c-2.374,3.336-6.19,5.337-12.3,5.337H34.245L30,326.059V303.42l2.12-1.824h3.434a6.4,6.4,0,0,0,4.014-1.468,14.12,14.12,0,0,1,9.709-3.825c4.876,0,7.759,1.868,10.9,4.759a2.5,2.5,0,0,0,1.4.534H74.807a4.453,4.453,0,0,1,0,8.9H57.847a2.227,2.227,0,0,0,0,4.448H76.206a5.007,5.007,0,0,0,3.138-1.423l11.448-14.945a4.085,4.085,0,0,1,5.6-.578A4.628,4.628,0,0,1,97.279,304.265Z" transform="translate(-25.761 -252.372)"/><path class="d" d="M8.484,333.138H2.124A2.174,2.174,0,0,1,0,330.914V304.227A2.174,2.174,0,0,1,2.124,302h2.12a4.348,4.348,0,0,1,4.24,4.448v26.687Z" transform="translate(0 -257.227)"/><g transform="translate(44.807 44.77)"><path class="e" d="M321.239,340.9H317V332h4.24a4.453,4.453,0,0,1,0,8.9Z" transform="translate(-316.999 -327.549)"/><path class="e" d="M343.711,309.086l-12.3,18.681c-2.374,3.336-6.19,5.337-12.3,5.337H317V319.761h5.639a5.007,5.007,0,0,0,3.138-1.423l11.448-14.945a4.085,4.085,0,0,1,5.6-.578A4.628,4.628,0,0,1,343.711,309.086Z" transform="translate(-316.999 -301.964)"/></g><path class="f" d="M342.6,26.985h-8.48A2.173,2.173,0,0,1,332,24.761V20.313c0-8.583,6.658-15.864,14.84-15.864a7.981,7.981,0,0,0,5.739-2.493l1.242-1.3A2.044,2.044,0,0,1,356.129.17a2.225,2.225,0,0,1,1.308,2.055v9.192C357.438,20,350.78,26.985,342.6,26.985Z" transform="translate(-285.072 0)"/><path class="g" d="M145.322,26.993h-8.48c-8.182,0-14.84-6.984-14.84-15.568V2.233A2.225,2.225,0,0,1,123.31.179a2.049,2.049,0,0,1,2.311.482l1.242,1.3A7.981,7.981,0,0,0,132.6,4.457c8.182,0,14.84,7.281,14.84,15.864v4.448A2.173,2.173,0,0,1,145.322,26.993Z" transform="translate(-104.755 -0.008)"/><path class="h" d="M230.135,95.859,219.7,105.2a11.46,11.46,0,0,0-3.689,8.451v7.206a2.122,2.122,0,1,1-4.24,0V113.65a11.461,11.461,0,0,0-3.689-8.451l-10.431-9.34a2.325,2.325,0,0,1-.212-3.158,2.073,2.073,0,0,1,3.011-.222l10.388,9.34a16.165,16.165,0,0,1,3.053,4,16.161,16.161,0,0,1,3.053-4l10.388-9.34a2.073,2.073,0,0,1,3.011.222A2.324,2.324,0,0,1,230.135,95.859Z" transform="translate(-169.09 -78.303)"/><path class="i" d="M333.236,95.86l-10.431,9.34a11.46,11.46,0,0,0-3.689,8.451v7.206a2.153,2.153,0,0,1-2.12,2.224V105.824a16.161,16.161,0,0,1,3.053-4l10.388-9.34a2.073,2.073,0,0,1,3.011.222A2.324,2.324,0,0,1,333.236,95.86Z" transform="translate(-272.191 -78.305)"/><path class="h" d="M284.637,279.344a2.067,2.067,0,0,1-.721.133,2.136,2.136,0,0,1-1.993-1.512,2.014,2.014,0,0,0-3.9,0,2.107,2.107,0,0,1-2.714,1.379,2.281,2.281,0,0,1-1.314-2.847,6.224,6.224,0,0,1,11.956,0A2.28,2.28,0,0,1,284.637,279.344Z" transform="translate(-235.166 -231.676)"/><path class="i" d="M321.662,279.343a2.067,2.067,0,0,1-.721.133,2.136,2.136,0,0,1-1.993-1.512A2.1,2.1,0,0,0,317,276.452V272a6.446,6.446,0,0,1,5.978,4.492A2.281,2.281,0,0,1,321.662,279.343Z" transform="translate(-272.192 -231.676)"/></g></svg>