<svg xmlns="http://www.w3.org/2000/svg" xmlns:xlink="http://www.w3.org/1999/xlink" width="448.16" height="381.635" viewBox="0 0 448.16 381.635"><defs><style>.a,.f{fill:none;}.a{stroke:#d8004c;stroke-linecap:round;stroke-linejoin:bevel;stroke-width:5px;stroke-dasharray:0 16;opacity:0.158;}.b{fill:url(#a);}.c{fill:#ee7062;}.d{fill:#b20f54;}.e{stroke:none;}</style><linearGradient id="a" x1="0.5" x2="0.5" y2="1" gradientUnits="objectBoundingBox"><stop offset="0" stop-color="#ee7062"/><stop offset="0.102" stop-color="#ec6960"/><stop offset="0.248" stop-color="#e8565c"/><stop offset="0.421" stop-color="#e23756"/><stop offset="0.612" stop-color="#da0c4e"/><stop offset="0.662" stop-color="#d8004c"/><stop offset="0.744" stop-color="#d3024d"/><stop offset="0.838" stop-color="#c50a51"/><stop offset="0.938" stop-color="#ae1758"/><stop offset="0.995" stop-color="#9e215d"/><stop offset="1" stop-color="#9e215d"/></linearGradient></defs><g class="a" transform="translate(33.08)"><circle class="e" cx="190.817" cy="190.817" r="190.817"/><circle class="f" cx="190.817" cy="190.817" r="188.317"/></g><g transform="translate(0 84.781)"><path class="b" d="M342.356,546.263l-.067-.612c0-37.979-35.077-68.877-78.193-68.877H202.49v12.448c19.131,0,35.178,11.88,39.264,27.746a31.782,31.782,0,0,1,1.017,7.937c0,.666-.025,1.332-.068,1.995q-1.43.285-2.833.611c-.115.027-.227.057-.342.084q-1.138.267-2.259.561a76.7,76.7,0,0,0-15.8,6.03,63.929,63.929,0,0,0-27.435,27.487Q184.28,580,184.281,606.842t9.648,45.167c.322.613.657,1.212.993,1.81A62.909,62.909,0,0,0,221.309,679.5a87.07,87.07,0,0,0,41.082,9.852l102.12-.129c-14.7-16.3-22.155-39.2-22.155-68.138Zm-40.492,105.69q-13.77,14.66-38.676,14.661t-38.676-14.819q-13.77-14.819-13.769-46.138,0-30.373,13.874-45.035t38.571-14.661c1.882,0,3.709.073,5.5.2v53.725s-3.362,40.967,38.426,45.058A41.111,41.111,0,0,1,301.864,651.953Z" transform="translate(-63.59 -476.774)"/><path class="c" d="M285.568,521.3l-.043-.392c0-24.335-22.476-44.133-50.1-44.133H195.948v7.976c12.258,0,22.541,7.612,25.158,17.778a20.365,20.365,0,0,1,.652,5.086c0,.427-.016.853-.044,1.278q-.916.183-1.815.391l-.219.054q-.729.171-1.448.359a49.147,49.147,0,0,0-10.122,3.864,40.962,40.962,0,0,0-17.579,17.613q-6.251,11.744-6.251,28.942t6.182,28.941c.207.393.421.777.637,1.16a40.31,40.31,0,0,0,16.908,16.453,55.791,55.791,0,0,0,26.323,6.313l65.434-.082c-9.417-10.447-14.2-25.115-14.2-43.66Zm-25.945,67.721q-8.823,9.394-24.782,9.394t-24.782-9.5q-8.823-9.5-8.822-29.563,0-19.462,8.89-28.856t24.715-9.394c1.206,0,2.377.047,3.522.129v34.424s-2.154,26.25,24.622,28.871A26.336,26.336,0,0,1,259.623,589.021Z" transform="translate(-184.281 -400.407)"/><path class="d" d="M308.853,531.535l-.053-.482c0-29.929-27.643-54.279-61.62-54.279H198.631v9.81c15.076,0,27.723,9.362,30.942,21.865a25.047,25.047,0,0,1,.8,6.255c0,.525-.02,1.049-.054,1.572q-1.127.225-2.233.481l-.269.066q-.9.21-1.78.442a60.448,60.448,0,0,0-12.449,4.752,50.379,50.379,0,0,0-21.62,21.662q-7.688,14.444-7.688,35.6t7.6,35.594c.254.483.518.955.783,1.427a49.576,49.576,0,0,0,20.794,20.236,68.615,68.615,0,0,0,32.375,7.764l80.476-.1c-11.581-12.848-17.459-30.889-17.459-53.7Zm-31.91,83.29q-10.851,11.553-30.479,11.553T215.986,614.7q-10.851-11.678-10.851-36.359,0-23.936,10.933-35.49t30.4-11.554c1.483,0,2.923.057,4.332.159v42.338s-2.649,32.284,30.282,35.508A32.392,32.392,0,0,1,276.943,614.825Z" transform="translate(121.848 -431.72)"/></g></svg>