<svg xmlns="http://www.w3.org/2000/svg" xmlns:xlink="http://www.w3.org/1999/xlink" width="536.937" height="457.233" viewBox="0 0 536.937 457.233"><defs><style>.a,.f{fill:none;}.a{stroke:#d8004c;stroke-linecap:round;stroke-linejoin:bevel;stroke-width:5px;stroke-dasharray:0 16;opacity:0.158;}.b{fill:url(#a);}.c{fill:#ee7062;}.d{fill:#b20f54;}.e{stroke:none;}</style><linearGradient id="a" x1="0.5" x2="0.5" y2="1" gradientUnits="objectBoundingBox"><stop offset="0" stop-color="#ee7062"/><stop offset="0.102" stop-color="#ec6960"/><stop offset="0.248" stop-color="#e8565c"/><stop offset="0.421" stop-color="#e23756"/><stop offset="0.612" stop-color="#da0c4e"/><stop offset="0.662" stop-color="#d8004c"/><stop offset="0.744" stop-color="#d3024d"/><stop offset="0.838" stop-color="#c50a51"/><stop offset="0.938" stop-color="#ae1758"/><stop offset="0.995" stop-color="#9e215d"/><stop offset="1" stop-color="#9e215d"/></linearGradient></defs><g class="a" transform="translate(39.633)"><circle class="e" cx="228.617" cy="228.617" r="228.617"/><circle class="f" cx="228.617" cy="228.617" r="226.117"/></g><g transform="translate(0 101.576)"><path class="b" d="M373.67,560.028l-.081-.733c0-45.5-42.026-82.521-93.682-82.521H206.1v14.914c22.921,0,42.147,14.233,47.042,33.242a38.077,38.077,0,0,1,1.219,9.509c0,.8-.03,1.6-.082,2.39q-1.714.342-3.395.732c-.138.033-.272.068-.409.1q-1.364.319-2.707.672a91.888,91.888,0,0,0-18.927,7.224q-21.182,10.978-32.87,32.932t-11.688,54.116q0,32.158,11.559,54.115c.386.734.788,1.452,1.19,2.169a75.37,75.37,0,0,0,31.614,30.765,104.318,104.318,0,0,0,49.22,11.8l122.349-.154c-17.607-19.533-26.543-46.961-26.543-81.635ZM325.157,686.655q-16.5,17.564-46.337,17.565t-46.337-17.755q-16.5-17.755-16.5-55.277,0-36.39,16.622-53.956t46.212-17.565c2.255,0,4.444.087,6.586.242v64.368s-4.028,49.082,46.038,53.984A49.254,49.254,0,0,1,325.157,686.655Z" transform="translate(-39.682 -476.774)"/><path class="c" d="M305.632,530.119l-.052-.47c0-29.155-26.928-52.876-60.027-52.876H198.26v9.557c14.687,0,27.006,9.12,30.142,21.3a24.4,24.4,0,0,1,.781,6.093c0,.511-.019,1.022-.052,1.531q-1.1.219-2.175.469l-.262.065q-.874.2-1.734.43a58.882,58.882,0,0,0-12.128,4.629,49.077,49.077,0,0,0-21.061,21.1q-7.489,14.071-7.489,34.675t7.407,34.674c.247.471.5.931.763,1.39A48.3,48.3,0,0,0,212.707,632.4a66.842,66.842,0,0,0,31.538,7.563l78.4-.1c-11.282-12.516-17.008-30.091-17.008-52.308Zm-31.085,81.136q-10.571,11.254-29.691,11.255t-29.691-11.376Q204.6,599.758,204.6,575.715q0-23.317,10.651-34.573t29.61-11.255c1.445,0,2.848.056,4.22.155v41.244s-2.581,31.45,29.5,34.59A31.553,31.553,0,0,1,274.548,611.256Z" transform="translate(-184.281 -385.279)"/><path class="d" d="M333.53,542.383l-.063-.578c0-35.858-33.118-65.031-73.826-65.031H201.473v11.753c18.063,0,33.214,11.217,37.071,26.2a30.008,30.008,0,0,1,.961,7.494c0,.629-.024,1.257-.065,1.883q-1.35.27-2.675.577c-.109.026-.214.054-.323.08q-1.075.252-2.133.529a72.42,72.42,0,0,0-14.916,5.693,60.358,60.358,0,0,0-25.9,25.953q-9.211,17.306-9.211,42.646t9.109,42.645c.3.579.621,1.145.938,1.709a59.4,59.4,0,0,0,24.914,24.245,82.207,82.207,0,0,0,38.788,9.3l96.418-.122c-13.876-15.393-20.918-37.008-20.918-64.333ZM295.3,642.171q-13,13.842-36.516,13.842t-36.516-13.992q-13-13.992-13-43.561,0-28.677,13.1-42.521T258.783,542.1c1.777,0,3.5.069,5.19.19v50.725s-3.174,38.68,36.281,42.542A38.808,38.808,0,0,1,295.3,642.171Z" transform="translate(182.49 -422.795)"/></g></svg>