<svg xmlns="http://www.w3.org/2000/svg" xmlns:xlink="http://www.w3.org/1999/xlink" width="148.86" height="65.431" viewBox="0 0 148.86 65.431"><defs><style>.a{fill:#afafaf;}.b{fill:url(#a);}.c{fill:url(#b);}.d{fill:url(#c);}</style><radialGradient id="a" cx="5.177" cy="1.36" r="5.039" gradientTransform="translate(0)" gradientUnits="objectBoundingBox"><stop offset="0" stop-color="#ee7062"/><stop offset="0.102" stop-color="#ec6960"/><stop offset="0.248" stop-color="#e8565c"/><stop offset="0.421" stop-color="#e23756"/><stop offset="0.612" stop-color="#da0c4e"/><stop offset="0.662" stop-color="#d8004c"/><stop offset="0.744" stop-color="#d3024d"/><stop offset="0.838" stop-color="#c50a51"/><stop offset="0.938" stop-color="#ae1758"/><stop offset="0.995" stop-color="#9e215d"/></radialGradient><radialGradient id="b" cx="0.845" cy="0.751" r="0.895" gradientTransform="translate(-0.021) scale(1.042 1)" xlink:href="#a"/><radialGradient id="c" cx="8.842" cy="3.932" r="8.808" gradientTransform="matrix(1, 0, 0, 1, 0, 0)" xlink:href="#a"/></defs><g transform="translate(0 43.844)"><path class="a" d="M127.038,271.237a5.6,5.6,0,0,1-2.963.811,5.523,5.523,0,0,1-2.236-.454,5.993,5.993,0,0,1-1.821-1.226,5.923,5.923,0,0,1-1.254-1.807,5.4,5.4,0,0,1-.468-2.236h13.553a8.005,8.005,0,0,0-.583-3.019,7.262,7.262,0,0,0-1.694-2.533,7.891,7.891,0,0,0-2.519-1.708,7.552,7.552,0,0,0-2.977-.6,7.66,7.66,0,0,0-2.99.6,7.537,7.537,0,0,0-2.505,1.708,7.377,7.377,0,0,0-1.694,2.505,7.844,7.844,0,0,0-.584,2.99,7.771,7.771,0,0,0,7.774,7.774,7.553,7.553,0,0,0,2.977-.6,8.186,8.186,0,0,0,2.519-1.68,7.878,7.878,0,0,0,1.767-2.676h-2.222A5.722,5.722,0,0,1,127.038,271.237Zm-7.575-8.472a5.829,5.829,0,0,1,1.254-1.223,5.723,5.723,0,0,1,1.566-.8,5.6,5.6,0,0,1,1.793-.286,5.5,5.5,0,0,1,3.347,1.083,5.934,5.934,0,0,1,2.093,2.791H118.608A5.943,5.943,0,0,1,119.464,262.765Z" transform="translate(-98.339 -258.464)"/><path class="a" d="M230.225,271.237a5.8,5.8,0,0,1-5.21.356,5.829,5.829,0,0,1-1.838-1.24,5.9,5.9,0,0,1-1.24-1.835,5.629,5.629,0,0,1-.454-2.25,5.707,5.707,0,0,1,.454-2.264,5.778,5.778,0,0,1,3.078-3.091,5.8,5.8,0,0,1,5.21.356,5.729,5.729,0,0,1,2.079,2.152h2.222a7.785,7.785,0,0,0-1.767-2.676,7.776,7.776,0,0,0-12.683,2.533,7.794,7.794,0,0,0-.586,2.99,7.773,7.773,0,0,0,2.278,5.5,7.818,7.818,0,0,0,2.508,1.68,7.776,7.776,0,0,0,5.978,0,7.9,7.9,0,0,0,4.272-4.357H232.3A5.722,5.722,0,0,1,230.225,271.237Z" transform="translate(-183.308 -258.464)"/><path class="a" d="M330.52,271.237a5.607,5.607,0,0,1-2.963.811,5.523,5.523,0,0,1-2.236-.454,6.043,6.043,0,0,1-1.823-1.226,5.918,5.918,0,0,1-1.251-1.807,5.356,5.356,0,0,1-.471-2.236h13.556a8,8,0,0,0-.584-3.019,7.3,7.3,0,0,0-1.694-2.533,7.891,7.891,0,0,0-2.519-1.708,7.552,7.552,0,0,0-2.977-.6,7.65,7.65,0,0,0-2.99.6,7.534,7.534,0,0,0-2.505,1.708,7.376,7.376,0,0,0-1.695,2.505,7.8,7.8,0,0,0-.583,2.99,7.677,7.677,0,0,0,2.278,5.5,7.8,7.8,0,0,0,2.505,1.68,7.651,7.651,0,0,0,2.99.6,7.553,7.553,0,0,0,2.977-.6,8.186,8.186,0,0,0,2.519-1.68,7.874,7.874,0,0,0,1.765-2.676H332.6A5.72,5.72,0,0,1,330.52,271.237Zm-7.575-8.472a5.877,5.877,0,0,1,1.251-1.223,5.72,5.72,0,0,1,1.565-.8,5.633,5.633,0,0,1,1.8-.286,5.5,5.5,0,0,1,3.347,1.083A5.935,5.935,0,0,1,333,264.333H322.09A5.864,5.864,0,0,1,322.946,262.765Z" transform="translate(-265.895 -258.464)"/><path class="a" d="M534,271.237a5.6,5.6,0,0,1-2.96.811,5.513,5.513,0,0,1-2.236-.454,6.01,6.01,0,0,1-1.823-1.226,5.869,5.869,0,0,1-1.251-1.807,5.354,5.354,0,0,1-.471-2.236h13.556a8.061,8.061,0,0,0-.583-3.019,7.3,7.3,0,0,0-1.694-2.533,7.9,7.9,0,0,0-2.522-1.708,7.538,7.538,0,0,0-2.974-.6,7.641,7.641,0,0,0-2.991.6,7.506,7.506,0,0,0-2.505,1.708,7.335,7.335,0,0,0-1.695,2.505,7.793,7.793,0,0,0-.584,2.99,7.678,7.678,0,0,0,2.278,5.5,7.773,7.773,0,0,0,2.505,1.68,7.641,7.641,0,0,0,2.991.6,7.539,7.539,0,0,0,2.974-.6,8.2,8.2,0,0,0,2.522-1.68,7.874,7.874,0,0,0,1.765-2.676h-2.222A5.718,5.718,0,0,1,534,271.237Zm-7.574-8.472a5.958,5.958,0,0,1,1.254-1.223,5.719,5.719,0,0,1,1.565-.8,5.608,5.608,0,0,1,1.8-.286,5.49,5.49,0,0,1,3.344,1.083,5.917,5.917,0,0,1,2.093,2.791h-10.9A5.93,5.93,0,0,1,526.425,262.765Z" transform="translate(-433.452 -258.464)"/><path class="a" d="M429.3,274.042a7.661,7.661,0,0,1-2.991-.6,7.8,7.8,0,0,1-2.505-1.68,7.741,7.741,0,0,1-2.278-5.5,7.794,7.794,0,0,1,.584-2.99,7.657,7.657,0,0,1,1.695-2.533,7.758,7.758,0,0,1,2.505-1.68l.081-.031c.194-.079.39-.151.589-.213a7.649,7.649,0,0,1,2.32-.356c.1,0,.208.014.311.017.07.006.14.008.208.014.151.008.3.022.457.045s.306.042.454.07c.056.011.109.014.165.025.1.02.185.051.281.073.07.017.14.034.21.053a8.726,8.726,0,0,1,1.1.359,6.494,6.494,0,0,1,1.439.811,5.966,5.966,0,0,1,1.128,1.094l.028.036a7.817,7.817,0,0,1,1.588,2.7,7.691,7.691,0,0,1,.4,2.076v6.441a7.78,7.78,0,0,1-.583,2.99,7.953,7.953,0,0,1-4.2,4.2,7.8,7.8,0,0,1-2.991.586,7.695,7.695,0,0,1-5.5-2.278,3.855,3.855,0,0,1-.513-.558.01.01,0,0,1,0-.005.091.091,0,0,1-.017-.028l1.635-1.131a5.754,5.754,0,0,0,1.6,1.307,5.869,5.869,0,0,0,5.041.244,5.913,5.913,0,0,0,1.837-1.24,5.824,5.824,0,0,0,1.237-1.838,5.563,5.563,0,0,0,.457-2.25v-.825l0-4.814c.008-.126.008-.255.008-.383a5.8,5.8,0,0,0-3.727-5.413,5.8,5.8,0,0,0-4.1-.015,5.8,5.8,0,0,0,0,10.858,5.8,5.8,0,0,0,4.091-.016,5.79,5.79,0,0,0,1.531-.873v2.337c-.191.1-.383.2-.578.283A7.54,7.54,0,0,1,429.3,274.042Z" transform="translate(-349.674 -258.464)"/><path class="a" d="M29.525,263.278a7.648,7.648,0,0,0-1.692-2.533,7.728,7.728,0,0,0-2.508-1.68,7.74,7.74,0,0,0-5.978,0,7.808,7.808,0,0,0-4.2,4.214,7.844,7.844,0,0,0-.584,2.99v13.211h1.995V271.45l-.011-4.615c0-.186-.01-.361-.01-.549a5.788,5.788,0,0,1,1.508-3.913c.067-.075.136-.148.207-.219a5.879,5.879,0,0,1,1.838-1.24,5.79,5.79,0,0,1,4.5,0,5.88,5.88,0,0,1,1.837,1.24q.106.106.206.218a5.807,5.807,0,0,1-8,8.379V273.1q.349.19.722.348a7.776,7.776,0,0,0,5.978,0,7.819,7.819,0,0,0,2.508-1.68,7.773,7.773,0,0,0,2.278-5.5A7.793,7.793,0,0,0,29.525,263.278Z" transform="translate(-14.561 -258.464)"/></g><g transform="translate(101.036)"><g transform="translate(0 0)"><circle class="b" cx="3.977" cy="3.977" r="3.977" transform="translate(0 22.828)"/><path class="c" d="M657.2,39.489a14.505,14.505,0,0,1-25.054,9.959c-.01-.01-.013-.017-.02-.023a.54.54,0,0,0-.043-.047,2.1,2.1,0,0,0-.413-.35,2.2,2.2,0,0,0-3.3,1.2h0a7.317,7.317,0,1,1-7.816-9.849v-.01a2.175,2.175,0,0,0,.687-4.2,7.354,7.354,0,0,1,3.5-13.819,7.271,7.271,0,0,1,2.2.337l0,0a2.316,2.316,0,0,0,.89.177,2.341,2.341,0,0,0,2.343-2.34,1.784,1.784,0,0,0-.027-.327s0,0,.007,0c-.007-.147-.013-.293-.013-.443a9.614,9.614,0,1,1,18.315,4.08c-.01.023-.023.047-.033.07A2.123,2.123,0,0,0,649.5,26.7c.063.027.109.058.172.078l.018.005A14.49,14.49,0,0,1,657.2,39.489Z" transform="translate(-609.375 -10.135)"/><circle class="d" cx="2.275" cy="2.275" r="2.275" transform="translate(0.946 15.755)"/></g></g></svg>