<svg xmlns="http://www.w3.org/2000/svg" xmlns:xlink="http://www.w3.org/1999/xlink" width="216.838" height="85.737" viewBox="0 0 216.838 85.737"><defs><style>.a{fill:#afafaf;}.b{fill:url(#a);}.c{fill:url(#b);}.d{fill:url(#c);}.e{fill:url(#d);}</style><radialGradient id="a" cx="5.177" cy="1.36" r="5.028" gradientTransform="translate(-0.011 -0.003)" gradientUnits="objectBoundingBox"><stop offset="0" stop-color="#ee7062"/><stop offset="0.102" stop-color="#ec6960"/><stop offset="0.248" stop-color="#e8565c"/><stop offset="0.421" stop-color="#e23756"/><stop offset="0.612" stop-color="#da0c4e"/><stop offset="0.662" stop-color="#d8004c"/><stop offset="0.744" stop-color="#d3024d"/><stop offset="0.838" stop-color="#c50a51"/><stop offset="0.938" stop-color="#ae1758"/><stop offset="0.995" stop-color="#9e215d"/></radialGradient><radialGradient id="b" cx="0.845" cy="0.751" r="0.893" gradientTransform="translate(-0.038 -0.002) scale(1.044 1.002)" xlink:href="#a"/><radialGradient id="c" cx="8.842" cy="3.932" r="8.789" gradientTransform="translate(-0.019 -0.008)" xlink:href="#a"/><radialGradient id="d" cx="0.5" cy="0.5" r="1.586" gradientTransform="translate(0.386) scale(0.229 1)" xlink:href="#a"/></defs><g transform="translate(130.608)"><g transform="translate(0 9.233)"><path class="a" d="M654.039,459.453a3.892,3.892,0,0,1-2.059.563,3.837,3.837,0,0,1-1.554-.316,4.163,4.163,0,0,1-1.265-.852,4.116,4.116,0,0,1-.871-1.256,3.748,3.748,0,0,1-.326-1.554h9.419a5.567,5.567,0,0,0-.405-2.1,5.047,5.047,0,0,0-1.178-1.761,5.482,5.482,0,0,0-1.751-1.187,5.246,5.246,0,0,0-2.068-.417,5.324,5.324,0,0,0-2.079.417,5.239,5.239,0,0,0-1.741,1.187,5.127,5.127,0,0,0-1.177,1.741,5.453,5.453,0,0,0-.406,2.079,5.338,5.338,0,0,0,1.583,3.819,5.428,5.428,0,0,0,1.741,1.168,5.327,5.327,0,0,0,2.079.415,5.25,5.25,0,0,0,2.068-.415,5.689,5.689,0,0,0,1.751-1.168,5.474,5.474,0,0,0,1.229-1.86h-1.544A3.975,3.975,0,0,1,654.039,459.453Zm-5.264-5.888a4.049,4.049,0,0,1,.871-.85,3.986,3.986,0,0,1,1.088-.554,3.9,3.9,0,0,1,1.246-.2,3.821,3.821,0,0,1,2.326.752,4.126,4.126,0,0,1,1.455,1.94h-7.58A4.123,4.123,0,0,1,648.775,453.565Z" transform="translate(-634.093 -450.576)"/><path class="a" d="M701.943,459.453a4.034,4.034,0,0,1-3.621.247,4.051,4.051,0,0,1-1.277-.862,4.1,4.1,0,0,1-.862-1.275,3.915,3.915,0,0,1-.316-1.564,3.968,3.968,0,0,1,.316-1.573,4.016,4.016,0,0,1,2.139-2.149,4.033,4.033,0,0,1,3.621.248,3.982,3.982,0,0,1,1.445,1.5h1.544a5.417,5.417,0,0,0-1.228-1.86,5.4,5.4,0,0,0-8.815,1.761,5.421,5.421,0,0,0-.407,2.079,5.4,5.4,0,0,0,1.583,3.819,5.437,5.437,0,0,0,1.743,1.168,5.4,5.4,0,0,0,4.155,0,5.493,5.493,0,0,0,2.97-3.028h-1.544A3.979,3.979,0,0,1,701.943,459.453Z" transform="translate(-669.336 -450.576)"/><path class="a" d="M748.5,459.453a3.9,3.9,0,0,1-2.059.563,3.837,3.837,0,0,1-1.554-.316,4.2,4.2,0,0,1-1.267-.852,4.112,4.112,0,0,1-.87-1.256,3.721,3.721,0,0,1-.328-1.554h9.421a5.566,5.566,0,0,0-.405-2.1,5.073,5.073,0,0,0-1.178-1.761,5.484,5.484,0,0,0-1.751-1.187,5.247,5.247,0,0,0-2.069-.417,5.318,5.318,0,0,0-2.079.417,5.24,5.24,0,0,0-1.741,1.187,5.128,5.128,0,0,0-1.177,1.741,5.413,5.413,0,0,0-.406,2.079,5.338,5.338,0,0,0,1.583,3.819,5.429,5.429,0,0,0,1.741,1.168,5.321,5.321,0,0,0,2.079.415,5.25,5.25,0,0,0,2.069-.415,5.691,5.691,0,0,0,1.751-1.168,5.464,5.464,0,0,0,1.226-1.86h-1.542A3.974,3.974,0,0,1,748.5,459.453Zm-5.264-5.888a4.084,4.084,0,0,1,.87-.85,3.979,3.979,0,0,1,1.088-.554,3.922,3.922,0,0,1,1.248-.2,3.821,3.821,0,0,1,2.326.752,4.126,4.126,0,0,1,1.455,1.94h-7.58A4.073,4.073,0,0,1,743.239,453.565Z" transform="translate(-703.589 -450.576)"/><path class="a" d="M842.965,459.453a3.891,3.891,0,0,1-2.057.563,3.831,3.831,0,0,1-1.554-.316,4.173,4.173,0,0,1-1.267-.852,4.083,4.083,0,0,1-.87-1.256,3.722,3.722,0,0,1-.327-1.554h9.421a5.6,5.6,0,0,0-.405-2.1,5.072,5.072,0,0,0-1.178-1.761,5.49,5.49,0,0,0-1.753-1.187,5.238,5.238,0,0,0-2.067-.417,5.31,5.31,0,0,0-2.079.417,5.22,5.22,0,0,0-1.741,1.187,5.1,5.1,0,0,0-1.177,1.741,5.413,5.413,0,0,0-.406,2.079,5.338,5.338,0,0,0,1.583,3.819,5.407,5.407,0,0,0,1.741,1.168,5.313,5.313,0,0,0,2.079.415,5.241,5.241,0,0,0,2.067-.415,5.7,5.7,0,0,0,1.753-1.168,5.464,5.464,0,0,0,1.226-1.86h-1.544A3.975,3.975,0,0,1,842.965,459.453Zm-5.264-5.888a4.146,4.146,0,0,1,.872-.85,3.98,3.98,0,0,1,1.088-.554,3.9,3.9,0,0,1,1.248-.2,3.816,3.816,0,0,1,2.324.752,4.115,4.115,0,0,1,1.454,1.94h-7.579A4.131,4.131,0,0,1,837.7,453.565Z" transform="translate(-773.085 -450.576)"/><path class="a" d="M793.676,461.4a5.327,5.327,0,0,1-2.079-.415,5.428,5.428,0,0,1-1.741-1.168A5.382,5.382,0,0,1,788.273,456a5.414,5.414,0,0,1,.406-2.079,5.322,5.322,0,0,1,1.177-1.761,5.4,5.4,0,0,1,1.741-1.168l.057-.021c.135-.055.271-.105.409-.148a5.316,5.316,0,0,1,1.613-.248c.072,0,.144.01.216.012l.144.01c.105.006.211.016.318.031s.213.029.316.049c.039.008.076.01.115.017.066.014.129.035.2.051.049.012.1.023.146.037a6.09,6.09,0,0,1,.766.249,4.52,4.52,0,0,1,1,.564,4.152,4.152,0,0,1,.784.76l.02.025a5.427,5.427,0,0,1,1.1,1.874,5.345,5.345,0,0,1,.279,1.443v4.477a5.409,5.409,0,0,1-.405,2.078,5.527,5.527,0,0,1-2.919,2.919,5.418,5.418,0,0,1-2.078.408,5.349,5.349,0,0,1-3.82-1.583,2.7,2.7,0,0,1-.357-.388.007.007,0,0,1,0,0,.062.062,0,0,1-.012-.019l1.137-.786a3.994,3.994,0,0,0,1.113.908,4.078,4.078,0,0,0,3.5.17,4.108,4.108,0,0,0,1.277-.862,4.055,4.055,0,0,0,.86-1.277,3.866,3.866,0,0,0,.318-1.564V459.6l0-3.345c.006-.087.005-.178.005-.266a4.028,4.028,0,0,0-2.59-3.762,4.032,4.032,0,0,0-2.847-.011,4.028,4.028,0,0,0,0,7.546,4.034,4.034,0,0,0,2.844-.011,4.023,4.023,0,0,0,1.064-.606v1.624c-.133.072-.266.138-.4.2A5.243,5.243,0,0,1,793.676,461.4Z" transform="translate(-738.337 -450.576)"/><path class="a" d="M609.745,453.922a5.408,5.408,0,0,0-9.994,0,5.454,5.454,0,0,0-.406,2.079v9.181h1.386V459.6l-.008-3.207c0-.129-.007-.251-.007-.382a4.023,4.023,0,0,1,1.048-2.72c.047-.052.095-.1.144-.153a4.087,4.087,0,0,1,1.277-.862,4.024,4.024,0,0,1,3.125,0,4.087,4.087,0,0,1,1.277.862c.049.049.1.1.143.152a4.036,4.036,0,0,1-5.562,5.823v1.631q.243.132.5.242a5.4,5.4,0,0,0,4.155,0,5.435,5.435,0,0,0,1.743-1.168A5.4,5.4,0,0,0,610.152,456,5.421,5.421,0,0,0,609.745,453.922Z" transform="translate(-599.345 -450.576)"/></g><g transform="translate(73.938 0)"><ellipse class="b" cx="1.022" cy="1.024" rx="1.022" ry="1.024" transform="translate(0 5.88)"/><path class="c" d="M894.837,423.206a3.727,3.727,0,0,1-6.44,2.565l-.005-.006-.011-.012a.542.542,0,0,0-.106-.09.563.563,0,0,0-.78.164.572.572,0,0,0-.068.144h0a1.882,1.882,0,1,1-2.009-2.537v0a.56.56,0,0,0,.177-1.081,1.9,1.9,0,0,1,.9-3.56,1.868,1.868,0,0,1,.566.087h0a.592.592,0,0,0,.229.045.6.6,0,0,0,.6-.6.449.449,0,0,0-.007-.084h0c0-.038,0-.075,0-.114a2.471,2.471,0,1,1,4.708,1.051l-.009.018a.547.547,0,0,0,.276.723c.016.007.028.015.044.02h0A3.733,3.733,0,0,1,894.837,423.206Z" transform="translate(-882.544 -415.645)"/><ellipse class="d" cx="0.585" cy="0.586" rx="0.585" ry="0.586" transform="translate(0.243 4.058)"/></g></g><path d="M257.837,662.478" transform="translate(-217.493 -597.237)"/><path class="e" d="M173.63,492.9l-.016-.142c0-8.811-8.138-15.98-18.141-15.98H141.18v2.888c4.439,0,8.162,2.756,9.109,6.437a7.374,7.374,0,0,1,.236,1.841c0,.155-.006.309-.016.463q-.332.066-.657.142l-.079.02q-.264.062-.524.13a17.8,17.8,0,0,0-3.665,1.4,14.832,14.832,0,0,0-6.365,6.377,25.519,25.519,0,0,0-.025,20.958c.075.142.153.281.23.42a14.6,14.6,0,0,0,6.122,5.958,20.2,20.2,0,0,0,9.531,2.286l23.693-.03c-3.41-3.783-5.14-9.094-5.14-15.808Zm-9.394,24.521q-3.195,3.4-8.973,3.4t-8.973-3.438q-3.195-3.438-3.194-10.7,0-7.047,3.219-10.448t8.949-3.4c.437,0,.861.017,1.275.047v12.465s-.78,9.5,8.915,10.454A9.536,9.536,0,0,1,164.235,517.417Zm-33.176-6.909a9.343,9.343,0,0,1,1.191,4.817,9.88,9.88,0,0,1-1.8,5.958,11.054,11.054,0,0,1-5.235,3.778,23.389,23.389,0,0,1-8.227,1.293,35.134,35.134,0,0,1-11.079-1.7V519.99a33.727,33.727,0,0,0,5.565,1.318,37.021,37.021,0,0,0,5.59.456q4.893,0,7.187-1.559a5.2,5.2,0,0,0,2.294-4.6,4.89,4.89,0,0,0-.748-2.8,5.5,5.5,0,0,0-2.4-1.838,21.557,21.557,0,0,0-4.513-1.293l-2.536-.507q-5.831-1.141-8.493-3.676a8.909,8.909,0,0,1-2.662-6.769,9.316,9.316,0,0,1,3.917-8.011q3.917-2.839,11.523-2.84a35.337,35.337,0,0,1,9.811,1.293v4.69a33.4,33.4,0,0,0-4.716-1.027,34.643,34.643,0,0,0-5.02-.368q-9.811,0-9.811,6.034a5.333,5.333,0,0,0,.659,2.776,4.953,4.953,0,0,0,2.155,1.838,17.485,17.485,0,0,0,4.107,1.268l2.535.482a25.207,25.207,0,0,1,6.883,2.231A9.346,9.346,0,0,1,131.06,510.508ZM229.32,488.35l-14.882,37.521h5.679l4.462-11.484H242.1l4.462,11.484h5.755L237.433,488.35Zm-2.992,21.575,7.023-18,7,18Zm95.71,5.4a9.882,9.882,0,0,1-1.8,5.958A11.053,11.053,0,0,1,315,525.061a23.387,23.387,0,0,1-8.227,1.293,35.136,35.136,0,0,1-11.079-1.7V519.99a33.734,33.734,0,0,0,5.565,1.318,37.024,37.024,0,0,0,5.59.456q4.893,0,7.187-1.559a5.2,5.2,0,0,0,2.294-4.6,4.887,4.887,0,0,0-.748-2.8,5.5,5.5,0,0,0-2.4-1.838,21.548,21.548,0,0,0-4.513-1.293l-2.535-.507q-5.831-1.141-8.493-3.676a8.91,8.91,0,0,1-2.662-6.769,9.316,9.316,0,0,1,3.917-8.011q3.917-2.839,11.523-2.84a35.334,35.334,0,0,1,9.811,1.293v4.69a33.389,33.389,0,0,0-4.715-1.027,34.644,34.644,0,0,0-5.02-.368q-9.812,0-9.811,6.034a5.335,5.335,0,0,0,.659,2.776,4.955,4.955,0,0,0,2.155,1.838,17.48,17.48,0,0,0,4.107,1.268l2.535.482a25.2,25.2,0,0,1,6.883,2.231,8.574,8.574,0,0,1,5.007,8.24Zm-36.662-22.564Q279.913,488,269.189,488q-2.966,0-6.249.33a52.428,52.428,0,0,0-5.945.912v36.254a86.042,86.042,0,0,0,10.927.685q11.561,0,17.24-4.652t5.679-14.413Q290.84,497.528,285.377,492.761ZM281.1,517.987q-3.854,3.5-11.89,3.5a47.2,47.2,0,0,1-6.49-.38V493.218a42.89,42.89,0,0,1,6.592-.583q7.885,0,11.764,3.537t3.879,10.889Q284.958,514.489,281.1,517.987Zm-74.733-7.2q0,5.654-2.561,8.24t-7.935,2.586q-5.375,0-7.935-2.586t-2.561-8.24V488.35h-5.755v21.9q0,8.164,3.942,12.131t12.309,3.968q8.29,0,12.207-3.968T212,510.255v-21.9h-5.628Z" transform="translate(-105.2 -460.617)"/></svg>