<svg xmlns="http://www.w3.org/2000/svg" width="58.488" height="90" viewBox="0 0 58.488 90"><defs><style>.a{fill:#ff4a4a;}.b{fill:#e20059;}.c{fill:#004960;}.d{fill:#eceae7;}.e{fill:#e7dfdd;}.f{fill:#fff;}.g{fill:#f4f1f1;}.h{fill:#00d5dd;}.i{fill:#00c6cb;}.j{fill:#fff5f5;}</style></defs><g transform="translate(-92.977)"><path class="a" d="M107.972,132.953v43.714c0,5.6,11.889,10.141,26.554,10.141s26.554-4.54,26.554-10.141V132.953Z" transform="translate(-12.305 -109.582)"/><path class="b" d="M255.969,186.808h.006c14.665,0,26.554-4.54,26.554-10.141V132.953H255.969Z" transform="translate(-133.754 -109.582)"/><g transform="translate(109.24 73.856)"><path class="c" d="M186.328,433.532a2.663,2.663,0,0,1-2.69-2.636v-8.1a2.69,2.69,0,0,1,5.38,0v8.1A2.663,2.663,0,0,1,186.328,433.532Z" transform="translate(-183.638 -420.157)"/></g><g transform="translate(119.525 74.589)"><path class="d" d="M243.664,439.74a2.663,2.663,0,0,1-2.69-2.636V426.965a2.69,2.69,0,0,1,5.38,0V437.1A2.663,2.663,0,0,1,243.664,439.74Z" transform="translate(-240.974 -424.329)"/></g><path class="e" d="M256,424.329v15.41a2.663,2.663,0,0,0,2.684-2.636V426.965A2.663,2.663,0,0,0,256,424.329Z" transform="translate(-133.779 -349.74)"/><path class="f" d="M107.972,76.668H161.08v9.894H107.972Z" transform="translate(-12.305 -63.191)"/><g transform="translate(94.219 20.735)"><path class="d" d="M107.245,123.229h-4.656a2.636,2.636,0,1,1,0-5.272h4.656a2.636,2.636,0,1,1,0,5.272Z" transform="translate(-99.899 -117.958)"/></g><path class="b" d="M107.972,135.29a2.72,2.72,0,0,0,1.242.3h4.656a2.663,2.663,0,0,0,2.69-2.636h-8.587Z" transform="translate(-12.305 -109.582)"/><g transform="translate(94.219 30.375)"><path class="b" d="M109.447,178.074h-6.858a2.636,2.636,0,1,1,0-5.272h6.858a2.636,2.636,0,1,1,0,5.272Z" transform="translate(-99.899 -172.802)"/></g><g transform="translate(94.219 40.422)"><path class="b" d="M107.245,235.23h-4.656a2.636,2.636,0,1,1,0-5.272h4.656a2.636,2.636,0,1,1,0,5.272Z" transform="translate(-99.899 -229.958)"/></g><g transform="translate(94.219 50.47)"><path class="b" d="M109.447,292.388h-6.858a2.636,2.636,0,1,1,0-5.272h6.858a2.636,2.636,0,1,1,0,5.272Z" transform="translate(-99.899 -287.116)"/></g><g transform="translate(94.219 60.517)"><path class="b" d="M107.245,349.544h-4.656a2.636,2.636,0,1,1,0-5.272h4.656a2.636,2.636,0,1,1,0,5.272Z" transform="translate(-99.899 -344.272)"/></g><path class="g" d="M122.221,130.694a57.27,57.27,0,0,1-19.753-3.15c-6.12-2.337-9.491-5.756-9.491-9.627V64.309a2.663,2.663,0,0,1,2.69-2.636h23.589c1.485,0,32.208,42.222,32.208,43.678v12.566c0,3.871-3.371,7.289-9.491,9.627A57.268,57.268,0,0,1,122.221,130.694ZM98.357,66.945v50.972c0,1.107,1.588,3.006,6.064,4.715a51.746,51.746,0,0,0,17.8,2.791,51.746,51.746,0,0,0,17.8-2.791c4.476-1.709,6.064-3.608,6.064-4.715V66.945Z" transform="translate(0 -50.832)"/><path class="h" d="M271.682,105.351H241.89a2.392,2.392,0,0,1-2.416-2.367V61.673h29.749a2.435,2.435,0,0,1,2.46,2.41v41.268Z" transform="translate(-120.218 -50.832)"/><g transform="translate(122.221 14.053)"><path class="d" d="M256,82h1.642c-.593-.755-1.143-1.445-1.642-2.06Z" transform="translate(-256 -79.944)"/><path class="d" d="M279.864,284.108c0,1.107-1.588,3.005-6.064,4.715a51.747,51.747,0,0,1-17.8,2.79v5.272a57.269,57.269,0,0,0,19.753-3.15c6.12-2.337,9.491-5.756,9.491-9.627V271.542c0-.387-2.168-3.65-5.38-8.234Z" transform="translate(-256 -231.076)"/><path class="d" d="M265.154,91.663c5.891,7.5,16.009,21.3,22.222,30.172V91.663Z" transform="translate(-263.512 -89.603)"/></g><path class="i" d="M282.784,61.673H256v43.678h29.244V64.083a2.435,2.435,0,0,0-2.46-2.41Z" transform="translate(-133.779 -50.832)"/><g transform="translate(113.999)"><path class="d" d="M218.389,16.113a8.15,8.15,0,0,1-8.222-8.057,8.223,8.223,0,0,1,16.443,0,8.149,8.149,0,0,1-8.221,8.056Zm0-10.841a2.785,2.785,0,1,0,2.842,2.785,2.817,2.817,0,0,0-2.842-2.785Z" transform="translate(-210.167)"/></g><path class="e" d="M256,0V5.272a2.785,2.785,0,1,1,0,5.569v5.272a8.149,8.149,0,0,0,8.221-8.057A8.149,8.149,0,0,0,256,0Z" transform="translate(-133.779)"/><path class="j" d="M299.995,149.133h-2.052v-2.01a2.69,2.69,0,0,0-5.38,0v2.01h-2.051a2.636,2.636,0,1,0,0,5.271h2.051v2.01a2.69,2.69,0,0,0,5.38,0V154.4h2.052a2.636,2.636,0,1,0,0-5.271Z" transform="translate(-159.893 -119.089)"/></g></svg>