<?xml version="1.0"?>
<svg xmlns="http://www.w3.org/2000/svg" viewBox="0 0 64 64" width="512" height="512"><path d="m33.04 2a24.89047 24.89047 0 0 0 -24.96 24.82043l-2.08 12.42096h6.24v11.37928h14.56v11.37933h31.2v-35.17957a24.89053 24.89053 0 0 0 -24.96-24.82043z" fill="#a5dfef"/><path d="m50 23a2.99507 2.99507 0 0 0 -2.81573 2h-7.18427v-3h3a.99974.99974 0 0 0 1-1v-4.18427a3.00011 3.00011 0 1 0 -2-.00006v3.18433h-2a.99974.99974 0 0 0 -1-1h-3v-6.18427a3.00011 3.00011 0 1 0 -2-.00006v6.18433h-2v-2a.99974.99974 0 0 0 -1-1h-6v-1.18427a3.00011 3.00011 0 1 0 -2-.00006v2.18433a.99974.99974 0 0 0 1 1h6v1a.99974.99974 0 0 0 -1 1v2h-5v-1a.99974.99974 0 0 0 -1-1h-4.18427a3 3 0 1 0 0 2h3.18427v1a.99974.99974 0 0 0 1 1h6v2h-8a.99974.99974 0 0 0 -1 1v4.18427a3 3 0 1 0 2 0v-3.18427h7v1a.99974.99974 0 0 0 1 1h1v3h-2a.99974.99974 0 0 0 -1 1v4.18427a3 3 0 1 0 2 0v-3.18427h2a.99974.99974 0 0 0 1-1v-4h4v3a.99974.99974 0 0 0 1 1h5v2.18427a3 3 0 1 0 2 0v-3.18427a.99974.99974 0 0 0 -1-1h-5v-2a.99974.99974 0 0 0 1-1v-2h7.18433a2.99472 2.99472 0 1 0 2.81567-4z" fill="#1550af"/><path d="m32 10a2.995 2.995 0 0 0 2 2.81567v6.18433h-2v-2a.99974.99974 0 0 0 -1-1h-6v-1.18427a3.00011 3.00011 0 1 0 -2-.00006v2.18433a.99974.99974 0 0 0 1 1h6v1a.99974.99974 0 0 0 -1 1v2h-5v-1a.99974.99974 0 0 0 -1-1h-4.18427a3 3 0 1 0 0 2h3.18427v1a.99974.99974 0 0 0 1 1h6v2h-8a.99974.99974 0 0 0 -1 1v4.18427a3 3 0 1 0 2 0v-3.18427h7v1a.99974.99974 0 0 0 1 1h1v3h-2a.99974.99974 0 0 0 -1 1v4.18427a3 3 0 1 0 2 0v-3.18427h2a.99974.99974 0 0 0 1-1v-4h2v-23a3.00328 3.00328 0 0 0 -3 3z" fill="#ed4720"/></svg>
